<svg xmlns="http://www.w3.org/2000/svg" width="400" height="250" viewBox="0 0 400 250">
  <defs>
    <linearGradient id="body" x1="0%" y1="0%" x2="0%" y2="100%">
      <stop offset="0%" style="stop-color:#ef4444"/>
      <stop offset="100%" style="stop-color:#b91c1c"/>
    </linearGradient>
  </defs>
  <ellipse cx="200" cy="220" rx="130" ry="12" fill="#0a1628" opacity="0.4"/>
  <!-- Hatchback body - shorter, sporty -->
  <path d="M70 165 L85 125 L105 105 L295 105 L315 125 L330 165 Z" fill="url(#body)" stroke="#dc2626" stroke-width="2"/>
  <rect x="70" y="165" width="260" height="35" rx="8" fill="url(#body)" stroke="#dc2626" stroke-width="2"/>
  <!-- Steep rear hatch -->
  <path d="M295 105 L275 155 L220 155 L220 105 Z" fill="#94a3b8" opacity="0.3"/>
  <path d="M110 110 L130 160 L180 160 L180 110 Z" fill="#94a3b8" opacity="0.4"/>
  <path d="M130 113 L145 157 L175 157 L175 113 Z" fill="#1e293b" opacity="0.6"/>
  <path d="M225 113 L210 157 L180 157 L180 113 Z" fill="#1e293b" opacity="0.6"/>
  <!-- Small hatchback wheels -->
  <circle cx="125" cy="200" r="20" fill="#1e293b" stroke="#0f172a" stroke-width="3"/>
  <circle cx="125" cy="200" r="9" fill="#64748b"/>
  <circle cx="125" cy="200" r="3" fill="#1e293b"/>
  <circle cx="275" cy="200" r="20" fill="#1e293b" stroke="#0f172a" stroke-width="3"/>
  <circle cx="275" cy="200" r="9" fill="#64748b"/>
  <circle cx="275" cy="200" r="3" fill="#1e293b"/>
  <ellipse cx="67" cy="148" rx="4" ry="7" fill="#fbbf24" opacity="0.8"/>
  <ellipse cx="333" cy="148" rx="4" ry="5" fill="#ef4444" opacity="0.7"/>
  <rect x="78" y="128" width="45" height="5" rx="2" fill="#1e293b" opacity="0.5"/>
  <rect x="78" y="137" width="45" height="5" rx="2" fill="#1e293b" opacity="0.5"/>
  <path d="M105 105 L295 105" stroke="#94a3b8" stroke-width="1.5" opacity="0.3"/>
  <circle cx="200" cy="130" r="8" fill="none" stroke="#94a3b8" stroke-width="1.5" opacity="0.5"/>
  <text x="200" y="133" font-family="Arial" font-size="6" fill="#94a3b8" text-anchor="middle" opacity="0.5">B</text>
  <!-- Sporty roof line -->
  <path d="M105 105 Q200 95 295 105" stroke="#94a3b8" stroke-width="1" fill="none" opacity="0.2"/>
  <text x="200" y="240" font-family="Arial" font-size="12" fill="#64748b" text-anchor="middle" opacity="0.6">Honda Brio — Hatchback</text>
</svg>
